# xmcd CD database file
#
# Track frame offsets:
#	150
#	20754
#	33778
#	57249
#	69978
#	76745
#	82176
#	100495
#	117322
#	139348
#	152859
#	173986
#	191565
#	211806
#	231530
#	252095
#	283172
#	309049
#	319567
#	332385
#
# Disc length: 4609 seconds
#
# Revision: 0
# Processed by: cddbd v1.5.2PL0 Copyright (c) Steve Scherf et al.
# Submitted via: CDex 1.70beta2
#
DISCID=1411ff14
DTITLE=Baker Chet - Deep In A Dream
DYEAR=2017
DGENRE=Jazz
TTITLE0=Deep In A Dream
TTITLE1=Aren´t You Glad You´re You
TTITLE2=This Time The Dream´s On Me
TTITLE3=The Thrill Is Gone
TTITLE4=Blue Room
TTITLE5=Spring Is Here
TTITLE6=The Wind
TTITLE7=Let´s Get Lost
TTITLE8=You Don´t Know What Love Is
TTITLE9=My Funny Valentine [1052 Instr. Version]
TTITLE10=Summer Sketch
TTITLE11=Halema
TTITLE12=Pounder
TTITLE13=A Night On Bop Mountain
TTITLE14=Little Girl Blue
TTITLE15=Alone Together
TTITLE16=Fan Tan
TTITLE17=My Funny Valentine [Vocal Version]
TTITLE18=Line For Lions
TTITLE19=Let´s Get Lost [Alt. Version]
EXTD=YEAR: 2017
EXTT0=
EXTT1=
EXTT2=
EXTT3=
EXTT4=
EXTT5=
EXTT6=
EXTT7=
EXTT8=
EXTT9=
EXTT10=
EXTT11=
EXTT12=
EXTT13=
EXTT14=
EXTT15=
EXTT16=
EXTT17=
EXTT18=
EXTT19=
PLAYORDER=
